<svg width="146" height="124" viewBox="0 0 146 124" fill="none" xmlns="http://www.w3.org/2000/svg">
<path d="M34.9843 124C27.7401 124 21.4971 122.576 16.2554 119.727C11.043 116.848 7.02337 112.727 4.19635 107.364C1.39878 101.97 0 95.5152 0 88C0 80.7879 1.41351 74.4848 4.24053 69.0909C7.06754 63.697 11.0578 59.5 16.2112 56.5C21.3646 53.5 27.4456 52 34.4543 52C39.5782 52 44.2163 52.8182 48.3685 54.4545C52.5207 56.0909 56.0692 58.4697 59.014 61.5909C61.9588 64.6818 64.2263 68.4394 65.8165 72.8636C67.4067 77.2879 68.2018 82.2727 68.2018 87.8182V93.6364H7.59761V79.8182H45.7623C45.7329 77.8182 45.2323 76.0606 44.2605 74.5455C43.3182 73 42.0372 71.803 40.4175 70.9545C38.8273 70.0758 37.0163 69.6364 34.9843 69.6364C33.0113 69.6364 31.2003 70.0758 29.5512 70.9545C27.9021 71.803 26.5769 72.9848 25.5757 74.5C24.6039 76.0151 24.0885 77.7879 24.0296 79.8182V94.7273C24.0296 96.9697 24.4861 98.9697 25.399 100.727C26.3119 102.485 27.6223 103.864 29.3303 104.864C31.0383 105.864 33.0997 106.364 35.5144 106.364C37.193 106.364 38.7242 106.121 40.1083 105.636C41.5218 105.152 42.7292 104.455 43.7304 103.545C44.7317 102.606 45.4679 101.485 45.939 100.182H68.2018C67.4361 105.03 65.6251 109.242 62.7686 112.818C59.9122 116.364 56.1281 119.121 51.4164 121.091C46.7341 123.03 41.2568 124 34.9843 124Z" fill="black" fill-opacity="1.00"/>
<path d="M110.839 124C103.477 124 97.175 122.5 91.9333 119.5C86.6915 116.47 82.6719 112.258 79.8743 106.864C77.0767 101.439 75.6779 95.1515 75.6779 88C75.6779 80.8485 77.0767 74.5758 79.8743 69.1818C82.6719 63.7576 86.6915 59.5455 91.9333 56.5454C97.175 53.5151 103.477 52 110.839 52C118.201 52 124.503 53.5151 129.745 56.5454C134.986 59.5455 139.006 63.7576 141.804 69.1818C144.601 74.5758 146 80.8485 146 88C146 95.1515 144.601 101.439 141.804 106.864C139.006 112.258 134.986 116.47 129.745 119.5C124.503 122.5 118.201 124 110.839 124ZM111.016 105.455C113.077 105.455 114.859 104.742 116.36 103.318C117.862 101.894 119.026 99.8636 119.85 97.2273C120.675 94.5909 121.087 91.4545 121.087 87.8182C121.087 84.1515 120.675 81.0151 119.85 78.4091C119.026 75.7727 117.862 73.7424 116.36 72.3182C114.859 70.8939 113.077 70.1818 111.016 70.1818C108.836 70.1818 106.967 70.8939 105.406 72.3182C103.845 73.7424 102.652 75.7727 101.828 78.4091C101.003 81.0151 100.591 84.1515 100.591 87.8182C100.591 91.4545 101.003 94.5909 101.828 97.2273C102.652 99.8636 103.845 101.894 105.406 103.318C106.967 104.742 108.836 105.455 111.016 105.455Z" fill="black" fill-opacity="1.00"/>
<path d="M41.4773 47H0L46.7311 0H99.2689L146 47H104.523L73.553 12.9434H72.447L41.4773 47ZM33.7348 28.457H111.712V38.0039H33.7348V28.457Z" fill="black" fill-opacity="1.00"/>
</svg>