<svg width="604" height="449" viewBox="0 0 604 449" fill="none" xmlns="http://www.w3.org/2000/svg">
<path d="M0 296H111.107C117.182 296 122.107 291.075 122.107 285V281C122.107 274.925 127.032 270 133.107 270H227" stroke="url(#paint0_linear_135_2)" stroke-width="5"/>
<path d="M604 296H505.803C499.728 296 494.803 291.075 494.803 285V281C494.803 274.925 489.878 270 483.803 270H401" stroke="url(#paint1_linear_135_2)" stroke-width="5"/>
<path d="M0 257H111.107C117.182 257 122.107 252.075 122.107 246V242C122.107 235.925 127.032 231 133.107 231H227" stroke="url(#paint2_linear_135_2)" stroke-width="5"/>
<path d="M604 257H505.803C499.728 257 494.803 252.075 494.803 246V242C494.803 235.925 489.878 231 483.803 231H401" stroke="url(#paint3_linear_135_2)" stroke-width="5"/>
<path d="M0 218H111.107C117.182 218 122.107 213.075 122.107 207V203C122.107 196.925 127.032 192 133.107 192H227" stroke="url(#paint4_linear_135_2)" stroke-width="5"/>
<path d="M604 218H505.803C499.728 218 494.803 213.075 494.803 207V203C494.803 196.925 489.878 192 483.803 192H401" stroke="url(#paint5_linear_135_2)" stroke-width="5"/>
<path d="M0 179H111.107C117.182 179 122.107 174.075 122.107 168V164C122.107 157.925 127.032 153 133.107 153H227" stroke="url(#paint6_linear_135_2)" stroke-width="5"/>
<path d="M604 179H505.803C499.728 179 494.803 174.075 494.803 168V164C494.803 157.925 489.878 153 483.803 153H401" stroke="url(#paint7_linear_135_2)" stroke-width="5"/>
<g filter="url(#filter0_d_135_2)">
<rect x="165.615" y="74" width="298.362" height="301" rx="20" fill="white"/>
</g>
<g filter="url(#filter1_d_135_2)">
<path d="M315 253.286C317.718 253.286 320.326 252.202 322.248 250.273C324.17 248.344 325.25 245.728 325.25 243C325.25 237.291 320.638 232.714 315 232.714C312.282 232.714 309.674 233.798 307.752 235.727C305.83 237.656 304.75 240.272 304.75 243C304.75 245.728 305.83 248.344 307.752 250.273C309.674 252.202 312.282 253.286 315 253.286ZM345.75 207C348.468 207 351.076 208.084 352.998 210.013C354.92 211.942 356 214.558 356 217.286V268.714C356 271.442 354.92 274.058 352.998 275.987C351.076 277.916 348.468 279 345.75 279H284.25C281.532 279 278.924 277.916 277.002 275.987C275.08 274.058 274 271.442 274 268.714V217.286C274 211.577 278.612 207 284.25 207H289.375V196.714C289.375 189.894 292.075 183.354 296.88 178.532C301.686 173.709 308.204 171 315 171C318.365 171 321.697 171.665 324.806 172.957C327.915 174.25 330.74 176.144 333.12 178.532C335.499 180.919 337.387 183.754 338.674 186.874C339.962 189.994 340.625 193.337 340.625 196.714V207H345.75ZM315 181.286C310.922 181.286 307.012 182.911 304.128 185.805C301.245 188.698 299.625 192.622 299.625 196.714V207H330.375V196.714C330.375 192.622 328.755 188.698 325.872 185.805C322.988 182.911 319.078 181.286 315 181.286Z" fill="#C7C7C7"/>
</g>
<defs>
<filter id="filter0_d_135_2" x="91.6146" y="0" width="446.362" height="449" filterUnits="userSpaceOnUse" color-interpolation-filters="sRGB">
<feFlood flood-opacity="0" result="BackgroundImageFix"/>
<feColorMatrix in="SourceAlpha" type="matrix" values="0 0 0 0 0 0 0 0 0 0 0 0 0 0 0 0 0 0 127 0" result="hardAlpha"/>
<feOffset/>
<feGaussianBlur stdDeviation="37"/>
<feComposite in2="hardAlpha" operator="out"/>
<feColorMatrix type="matrix" values="0 0 0 0 0.469558 0 0 0 0 0.447083 0 0 0 0 0.483333 0 0 0 0.33 0"/>
<feBlend mode="normal" in2="BackgroundImageFix" result="effect1_dropShadow_135_2"/>
<feBlend mode="normal" in="SourceGraphic" in2="effect1_dropShadow_135_2" result="shape"/>
</filter>
<filter id="filter1_d_135_2" x="246" y="143" width="148" height="174" filterUnits="userSpaceOnUse" color-interpolation-filters="sRGB">
<feFlood flood-opacity="0" result="BackgroundImageFix"/>
<feColorMatrix in="SourceAlpha" type="matrix" values="0 0 0 0 0 0 0 0 0 0 0 0 0 0 0 0 0 0 127 0" result="hardAlpha"/>
<feOffset dx="5" dy="5"/>
<feGaussianBlur stdDeviation="16.5"/>
<feComposite in2="hardAlpha" operator="out"/>
<feColorMatrix type="matrix" values="0 0 0 0 0.795833 0 0 0 0 0.795833 0 0 0 0 0.795833 0 0 0 0.6 0"/>
<feBlend mode="normal" in2="BackgroundImageFix" result="effect1_dropShadow_135_2"/>
<feBlend mode="normal" in="SourceGraphic" in2="effect1_dropShadow_135_2" result="shape"/>
</filter>
<linearGradient id="paint0_linear_135_2" x1="113.5" y1="296" x2="113.5" y2="270" gradientUnits="userSpaceOnUse">
<stop stop-color="#53D6FF"/>
<stop offset="0.9999" stop-color="#DFDEDF"/>
<stop offset="1" stop-color="#DFDFDF" stop-opacity="0"/>
</linearGradient>
<linearGradient id="paint1_linear_135_2" x1="502.5" y1="296" x2="502.5" y2="270" gradientUnits="userSpaceOnUse">
<stop stop-color="#FFABAB"/>
<stop offset="1" stop-color="#DFDFDF"/>
</linearGradient>
<linearGradient id="paint2_linear_135_2" x1="113.5" y1="257" x2="113.5" y2="231" gradientUnits="userSpaceOnUse">
<stop stop-color="#53D6FF"/>
<stop offset="0.9999" stop-color="#DFDEDF"/>
<stop offset="1" stop-color="#DFDFDF" stop-opacity="0"/>
</linearGradient>
<linearGradient id="paint3_linear_135_2" x1="502.5" y1="257" x2="502.5" y2="231" gradientUnits="userSpaceOnUse">
<stop stop-color="#FFABAB"/>
<stop offset="1" stop-color="#DFDFDF"/>
</linearGradient>
<linearGradient id="paint4_linear_135_2" x1="113.5" y1="218" x2="113.5" y2="192" gradientUnits="userSpaceOnUse">
<stop stop-color="#53D6FF"/>
<stop offset="0.9999" stop-color="#DFDEDF"/>
<stop offset="1" stop-color="#DFDFDF" stop-opacity="0"/>
</linearGradient>
<linearGradient id="paint5_linear_135_2" x1="502.5" y1="218" x2="502.5" y2="192" gradientUnits="userSpaceOnUse">
<stop stop-color="#FFABAB"/>
<stop offset="1" stop-color="#DFDFDF"/>
</linearGradient>
<linearGradient id="paint6_linear_135_2" x1="113.5" y1="179" x2="113.5" y2="153" gradientUnits="userSpaceOnUse">
<stop stop-color="#53D6FF"/>
<stop offset="0.9999" stop-color="#DFDEDF"/>
<stop offset="1" stop-color="#DFDFDF" stop-opacity="0"/>
</linearGradient>
<linearGradient id="paint7_linear_135_2" x1="502.5" y1="179" x2="502.5" y2="153" gradientUnits="userSpaceOnUse">
<stop stop-color="#FFABAB"/>
<stop offset="1" stop-color="#DFDFDF"/>
</linearGradient>
</defs>
</svg>
