<svg width="447" height="449" viewBox="0 0 447 449" fill="none" xmlns="http://www.w3.org/2000/svg">
<g filter="url(#filter0_d_177_9)">
<rect x="74" y="74" width="298.362" height="301" rx="20" fill="white"/>
</g>
<line x1="74" y1="349.5" x2="372" y2="349.5" stroke="#D7D7D7"/>
<line x1="74" y1="103.5" x2="372" y2="103.5" stroke="#D7D7D7"/>
<g filter="url(#filter1_d_177_9)">
<path d="M144 277.4C144 274.723 146.204 272.36 149.037 272.36H157.537C159.584 267.95 163.991 264.8 169.186 264.8C174.223 264.8 178.63 267.95 180.676 272.36H219.557C222.233 272.36 224.594 274.723 224.594 277.4C224.594 280.235 222.233 282.44 219.557 282.44H180.676C178.63 287.008 174.223 290 169.186 290C163.991 290 159.584 287.008 157.537 282.44H149.037C146.204 282.44 144 280.235 144 277.4ZM174.223 277.4C174.223 274.723 171.862 272.36 169.186 272.36C166.352 272.36 164.148 274.723 164.148 277.4C164.148 280.235 166.352 282.44 169.186 282.44C171.862 282.44 174.223 280.235 174.223 277.4ZM199.408 239.6C204.445 239.6 208.853 242.75 210.899 247.16H219.557C222.233 247.16 224.594 249.523 224.594 252.2C224.594 255.035 222.233 257.24 219.557 257.24H210.899C208.853 261.808 204.445 264.8 199.408 264.8C194.214 264.8 189.806 261.808 187.76 257.24H149.037C146.204 257.24 144 255.035 144 252.2C144 249.523 146.204 247.16 149.037 247.16H187.76C189.806 242.75 194.214 239.6 199.408 239.6ZM204.445 252.2C204.445 249.523 202.084 247.16 199.408 247.16C196.575 247.16 194.371 249.523 194.371 252.2C194.371 255.035 196.575 257.24 199.408 257.24C202.084 257.24 204.445 255.035 204.445 252.2ZM219.557 221.96C222.233 221.96 224.594 224.323 224.594 227C224.594 229.835 222.233 232.04 219.557 232.04H185.714C183.667 236.608 179.26 239.6 174.223 239.6C169.028 239.6 164.621 236.608 162.574 232.04H149.037C146.204 232.04 144 229.835 144 227C144 224.323 146.204 221.96 149.037 221.96H162.574C164.621 217.55 169.028 214.4 174.223 214.4C179.26 214.4 183.667 217.55 185.714 221.96H219.557ZM169.186 227C169.186 229.835 171.389 232.04 174.223 232.04C176.899 232.04 179.26 229.835 179.26 227C179.26 224.323 176.899 221.96 174.223 221.96C171.389 221.96 169.186 224.323 169.186 227Z" fill="#C7C7C7"/>
<path d="M260.168 192.823C258.279 194.87 254.974 194.87 253.085 192.823L240.492 180.223C238.446 178.333 238.446 175.026 240.492 173.136C242.381 171.088 245.687 171.088 247.576 173.136L256.548 182.113L278.27 160.536C280.159 158.488 283.465 158.488 285.354 160.536C287.4 162.426 287.4 165.733 285.354 167.623L260.168 192.823ZM260.168 228.103C258.279 230.15 254.974 230.15 253.085 228.103L232.936 207.943C230.89 206.053 230.89 202.745 232.936 200.855C234.825 198.808 238.131 198.808 240.02 200.855L256.548 217.393L293.382 180.696C295.271 178.648 298.576 178.648 300.465 180.696C302.512 182.586 302.512 185.893 300.465 187.783L260.168 228.103Z" fill="#C7C7C7"/>
<path d="M157.537 272.86H157.856L157.991 272.571C159.962 268.322 164.201 265.3 169.186 265.3C174.009 265.3 178.25 268.319 180.223 272.571L180.357 272.86H180.676H219.557C221.956 272.86 224.094 274.998 224.094 277.4C224.094 279.949 221.966 281.94 219.557 281.94H180.676H180.353L180.22 282.236C178.251 286.631 174.017 289.5 169.186 289.5C164.193 289.5 159.961 286.628 157.994 282.236L157.861 281.94H157.537H149.037C146.48 281.94 144.5 279.959 144.5 277.4C144.5 274.988 146.49 272.86 149.037 272.86H157.537ZM210.446 247.371L210.58 247.66H210.899H219.557C221.956 247.66 224.094 249.799 224.094 252.2C224.094 254.749 221.966 256.74 219.557 256.74H210.899H210.575L210.443 257.036C208.473 261.432 204.239 264.3 199.408 264.3C194.416 264.3 190.184 261.428 188.216 257.036L188.084 256.74H187.76H149.037C146.48 256.74 144.5 254.759 144.5 252.2C144.5 249.788 146.49 247.66 149.037 247.66H187.76H188.079L188.213 247.371C190.185 243.123 194.424 240.1 199.408 240.1C204.232 240.1 208.473 243.119 210.446 247.371ZM185.714 231.54H185.39L185.257 231.836C183.288 236.232 179.054 239.1 174.223 239.1C169.23 239.1 164.999 236.228 163.031 231.836L162.898 231.54H162.574H149.037C146.48 231.54 144.5 229.559 144.5 227C144.5 224.588 146.49 222.46 149.037 222.46H162.574H162.894L163.028 222.171C164.999 217.923 169.238 214.9 174.223 214.9C179.046 214.9 183.287 217.919 185.26 222.171L185.394 222.46H185.714H219.557C221.956 222.46 224.094 224.599 224.094 227C224.094 229.549 221.966 231.54 219.557 231.54H185.714ZM259.815 192.47L259.808 192.477L259.801 192.484C258.11 194.317 255.143 194.317 253.452 192.484L253.446 192.477L253.439 192.47L240.846 179.87L240.839 179.863L240.831 179.856C238.999 178.164 238.999 175.195 240.831 173.503L240.846 173.489L240.86 173.475C242.551 171.642 245.517 171.642 247.208 173.475L247.215 173.482L247.222 173.489L256.194 182.466L256.547 182.819L256.9 182.468L278.623 160.89L278.631 160.883L278.638 160.875C280.329 159.042 283.296 159.042 284.986 160.875L285 160.889L285.015 160.903C286.847 162.595 286.847 165.564 285.015 167.256L285.007 167.263L285 167.27L259.815 192.47ZM259.815 227.749L259.808 227.756L259.801 227.764C258.11 229.597 255.143 229.597 253.452 227.764L253.446 227.756L253.439 227.749L233.29 207.589L233.283 207.582L233.276 207.576C231.444 205.884 231.444 202.915 233.276 201.223L233.29 201.209L233.304 201.194C234.995 199.362 237.962 199.362 239.652 201.194L239.659 201.202L239.666 201.209L256.194 217.746L256.547 218.099L256.901 217.747L293.735 181.05L293.742 181.042L293.749 181.035C295.44 179.202 298.407 179.202 300.098 181.035L300.111 181.049L300.126 181.063C301.958 182.755 301.958 185.724 300.126 187.416L300.119 187.422L300.112 187.43L259.815 227.749ZM174.723 277.4C174.723 274.447 172.138 271.86 169.186 271.86C166.066 271.86 163.648 274.457 163.648 277.4C163.648 280.511 166.076 282.94 169.186 282.94C172.128 282.94 174.723 280.521 174.723 277.4ZM204.945 252.2C204.945 249.247 202.361 246.66 199.408 246.66C196.288 246.66 193.871 249.257 193.871 252.2C193.871 255.311 196.298 257.74 199.408 257.74C202.35 257.74 204.945 255.321 204.945 252.2ZM168.686 227C168.686 230.111 171.113 232.54 174.223 232.54C177.165 232.54 179.76 230.121 179.76 227C179.76 224.047 177.175 221.46 174.223 221.46C171.103 221.46 168.686 224.057 168.686 227Z" stroke="#C7C7C7"/>
</g>
<defs>
<filter id="filter0_d_177_9" x="0" y="0" width="446.362" height="449" filterUnits="userSpaceOnUse" color-interpolation-filters="sRGB">
<feFlood flood-opacity="0" result="BackgroundImageFix"/>
<feColorMatrix in="SourceAlpha" type="matrix" values="0 0 0 0 0 0 0 0 0 0 0 0 0 0 0 0 0 0 127 0" result="hardAlpha"/>
<feOffset/>
<feGaussianBlur stdDeviation="37"/>
<feComposite in2="hardAlpha" operator="out"/>
<feColorMatrix type="matrix" values="0 0 0 0 0.469558 0 0 0 0 0.447083 0 0 0 0 0.483333 0 0 0 0.33 0"/>
<feBlend mode="normal" in2="BackgroundImageFix" result="effect1_dropShadow_177_9"/>
<feBlend mode="normal" in="SourceGraphic" in2="effect1_dropShadow_177_9" result="shape"/>
</filter>
<filter id="filter1_d_177_9" x="127" y="146" width="194" height="167" filterUnits="userSpaceOnUse" color-interpolation-filters="sRGB">
<feFlood flood-opacity="0" result="BackgroundImageFix"/>
<feColorMatrix in="SourceAlpha" type="matrix" values="0 0 0 0 0 0 0 0 0 0 0 0 0 0 0 0 0 0 127 0" result="hardAlpha"/>
<feOffset dx="1" dy="5"/>
<feGaussianBlur stdDeviation="9"/>
<feComposite in2="hardAlpha" operator="out"/>
<feColorMatrix type="matrix" values="0 0 0 0 0 0 0 0 0 0 0 0 0 0 0 0 0 0 0.19 0"/>
<feBlend mode="normal" in2="BackgroundImageFix" result="effect1_dropShadow_177_9"/>
<feBlend mode="normal" in="SourceGraphic" in2="effect1_dropShadow_177_9" result="shape"/>
</filter>
</defs>
</svg>
