<svg width="447" height="449" viewBox="0 0 447 449" fill="none" xmlns="http://www.w3.org/2000/svg">
<g filter="url(#filter0_d_122_19)">
<rect x="74" y="74" width="298.362" height="301" rx="20" fill="white"/>
</g>
<g filter="url(#filter1_d_122_19)">
<path d="M246.099 225.5C242.006 225.5 238.155 223.32 236.073 219.833L220.5 194.016L204.952 219.833C202.845 223.345 198.994 225.524 194.901 225.524C193.811 225.524 192.721 225.379 191.68 225.064L158.5 215.57V258.68C158.5 262.24 160.922 265.34 164.361 266.187L216.722 279.29C219.192 279.895 221.784 279.895 224.23 279.29L276.639 266.187C280.078 265.316 282.5 262.216 282.5 258.68V215.57L249.32 225.04C248.279 225.355 247.189 225.5 246.099 225.5ZM297.588 198.327L285.116 173.43C284.365 171.928 282.742 171.056 281.071 171.274L220.5 179L242.709 215.837C243.629 217.362 245.47 218.089 247.189 217.605L295.118 203.921C297.516 203.219 298.678 200.555 297.588 198.327ZM155.884 173.43L143.412 198.327C142.298 200.555 143.484 203.219 145.858 203.897L193.787 217.58C195.506 218.065 197.347 217.338 198.267 215.812L220.5 179L159.905 171.274C158.234 171.08 156.635 171.928 155.884 173.43Z" fill="#C7C7C7"/>
</g>
<line x1="74" y1="346.5" x2="372" y2="346.5" stroke="#D7D7D7"/>
<line x1="74" y1="107.5" x2="371" y2="107.5" stroke="#D7D7D7"/>
<defs>
<filter id="filter0_d_122_19" x="0" y="0" width="446.362" height="449" filterUnits="userSpaceOnUse" color-interpolation-filters="sRGB">
<feFlood flood-opacity="0" result="BackgroundImageFix"/>
<feColorMatrix in="SourceAlpha" type="matrix" values="0 0 0 0 0 0 0 0 0 0 0 0 0 0 0 0 0 0 127 0" result="hardAlpha"/>
<feOffset/>
<feGaussianBlur stdDeviation="37"/>
<feComposite in2="hardAlpha" operator="out"/>
<feColorMatrix type="matrix" values="0 0 0 0 0.469558 0 0 0 0 0.447083 0 0 0 0 0.483333 0 0 0 0.33 0"/>
<feBlend mode="normal" in2="BackgroundImageFix" result="effect1_dropShadow_122_19"/>
<feBlend mode="normal" in="SourceGraphic" in2="effect1_dropShadow_122_19" result="shape"/>
</filter>
<filter id="filter1_d_122_19" x="125.99" y="158.241" width="191.01" height="144.503" filterUnits="userSpaceOnUse" color-interpolation-filters="sRGB">
<feFlood flood-opacity="0" result="BackgroundImageFix"/>
<feColorMatrix in="SourceAlpha" type="matrix" values="0 0 0 0 0 0 0 0 0 0 0 0 0 0 0 0 0 0 127 0" result="hardAlpha"/>
<feOffset dx="1" dy="5"/>
<feGaussianBlur stdDeviation="9"/>
<feComposite in2="hardAlpha" operator="out"/>
<feColorMatrix type="matrix" values="0 0 0 0 0 0 0 0 0 0 0 0 0 0 0 0 0 0 0.19 0"/>
<feBlend mode="normal" in2="BackgroundImageFix" result="effect1_dropShadow_122_19"/>
<feBlend mode="normal" in="SourceGraphic" in2="effect1_dropShadow_122_19" result="shape"/>
</filter>
</defs>
</svg>
